<?xml version="1.0" encoding="UTF-8"?>
<svg id="Capa_1" data-name="Capa 1" xmlns="http://www.w3.org/2000/svg" version="1.1" viewBox="0 0 75 75">
  <defs>
    <style>
      .cls-1 {
        fill: #fff;
        stroke-width: 0px;
      }
    </style>
  </defs>
  <path class="cls-1" d="M39.9,50.2h-4.7c-1.4,0-2.6,1.2-2.6,2.6s1.2,2.6,2.6,2.6h4.7c1.4,0,2.6-1.2,2.6-2.6s-1.2-2.6-2.6-2.6Z"/>
  <path class="cls-1" d="M37.5,0C16.8,0,0,16.8,0,37.5s16.8,37.5,37.5,37.5,37.5-16.8,37.5-37.5S58.2,0,37.5,0ZM52.6,47v7.2c0,3-2.4,5.4-5.4,5.4h-19.2c-3,0-5.4-2.4-5.4-5.4V20.7c0-3,2.4-5.4,5.4-5.4h19.2c3,0,5.4,2.4,5.4,5.4v26.3Z"/>
</svg>