<?xml version="1.0" encoding="UTF-8"?>
<svg id="Capa_1" data-name="Capa 1" xmlns="http://www.w3.org/2000/svg" version="1.1" viewBox="0 0 75 75">
  <defs>
    <style>
      .cls-1 {
        fill: #fff;
        stroke-width: 0px;
      }
    </style>
  </defs>
  <path class="cls-1" d="M37.5,0C16.8,0,0,16.8,0,37.5s16.8,37.5,37.5,37.5,37.5-16.8,37.5-37.5S58.2,0,37.5,0ZM59.4,45.4c0,.3,0,.7,0,1,0,.1,0,.3,0,.4,0,.2,0,.5-.2.7,0,.1,0,.3-.1.4,0,.3-.2.6-.3.9,0,.1-.1.3-.2.4-.1.2-.2.4-.3.6,0,0,0,.1-.1.2l-11.1-12.6,11.1-12.6c.9,1.4,1.4,3,1.4,4.8v15.6s0,0,0,.1ZM20.3,21.7c1.3-.7,2.8-1.1,4.4-1.1h25.7c1.6,0,3.1.4,4.4,1.1l-10.8,12.3h0s-3,3.4-3,3.4h0c0,0-.4.5-.4.5,0,0-.1.1-.2.2-.7.7-1.7,1.2-2.8,1.2s-2.2-.5-2.9-1.3h-.1c0-.1-2.4-2.9-2.4-2.9l-.9-1h0s-10.8-12.3-10.8-12.3ZM15.6,29.7c0-1.8.5-3.4,1.4-4.8l11.1,12.6h0s-11.1,12.6-11.1,12.6c0,0,0-.1-.1-.2-.1-.2-.3-.5-.4-.7,0-.1,0-.2-.1-.3-.1-.3-.3-.7-.4-1,0,0,0-.1,0-.2,0-.3-.2-.6-.2-.9,0,0,0-.2,0-.3,0-.4,0-.8,0-1.2h0s0,0,0,0v-15.5ZM24.7,54.4s0,0,0,0h0c-.4,0-.7,0-1.1,0-.1,0-.2,0-.3,0-.2,0-.5,0-.7-.1-.1,0-.2,0-.3,0-.2,0-.5-.1-.7-.2,0,0-.2,0-.3-.1-.3-.1-.6-.3-.9-.4,0,0,0,0,0,0l10.8-12.3h0c.5.6,1.1,1.1,1.7,1.5.7.5,1.5.8,2.3,1.1.8.2,1.5.3,2.3.3,2.4,0,4.7-1,6.4-2.9h0s10.9,12.3,10.9,12.3c0,0,0,0,0,0-.3.2-.6.3-.9.4-.1,0-.2,0-.4.1-.2,0-.4.1-.6.2-.1,0-.3,0-.4,0-.2,0-.5.1-.7.1-.1,0-.2,0-.3,0-.4,0-.7,0-1.1,0h0s0,0,0,0h-25.7Z"/>
</svg>