<?xml version="1.0" encoding="UTF-8"?>
<svg id="Capa_1" data-name="Capa 1" xmlns="http://www.w3.org/2000/svg" version="1.1" viewBox="0 0 75 75">
  <defs>
    <style>
      .cls-1 {
        fill: #2c363b;
        stroke-width: 0px;
      }
    </style>
  </defs>
  <path class="cls-1" d="M37.7,30.3c-4,0-7.2,3.2-7.2,7.2s3.2,7.2,7.2,7.2,7.2-3.2,7.2-7.2-3.2-7.2-7.2-7.2Z"/>
  <path class="cls-1" d="M46.6,19h-18.1c-5.2,0-9.4,4.2-9.4,9.4v18.2c0,5.2,4.2,9.4,9.4,9.4h18.1c5.2,0,9.4-4.2,9.4-9.4v-18.2c0-5.2-4.2-9.4-9.4-9.4ZM37.7,48.7c-6.2,0-11.2-5-11.2-11.2s5-11.2,11.2-11.2,11.2,5,11.2,11.2-5,11.2-11.2,11.2ZM49.5,28.2c-1.5,0-2.7-1.2-2.7-2.7s1.2-2.7,2.7-2.7,2.7,1.2,2.7,2.7-1.2,2.7-2.7,2.7Z"/>
  <path class="cls-1" d="M37.5,0C16.8,0,0,16.8,0,37.5s16.8,37.5,37.5,37.5,37.5-16.8,37.5-37.5S58.2,0,37.5,0ZM60.2,46.6c0,7.5-6.1,13.7-13.7,13.7h-18.1c-7.5,0-13.7-6.1-13.7-13.7v-18.2c0-7.5,6.1-13.7,13.7-13.7h18.1c7.5,0,13.7,6.1,13.7,13.7v18.2Z"/>
</svg>