<?xml version="1.0" encoding="UTF-8"?>
<svg id="Capa_1" data-name="Capa 1" xmlns="http://www.w3.org/2000/svg" version="1.1" viewBox="0 0 75 75">
  <defs>
    <style>
      .cls-1 {
        fill: #2c363b;
        stroke-width: 0px;
      }
    </style>
  </defs>
  <path class="cls-1" d="M37.5,0C16.8,0,0,16.8,0,37.5s16.8,37.5,37.5,37.5,37.5-16.8,37.5-37.5S58.2,0,37.5,0ZM26.7,54.7h-8.1v-26h8.1v26ZM22.7,25.1c-2.6,0-4.7-2.1-4.7-4.7s2.1-4.7,4.7-4.7,4.7,2.1,4.7,4.7-2.1,4.7-4.7,4.7ZM57,54.7h-8.1v-12.6c0-3,0-6.9-4.2-6.9s-4.8,3.3-4.8,6.7v12.9h-8.1v-26h7.8v3.6h.1c1.1-2,3.7-4.2,7.7-4.2,8.2,0,9.7,5.4,9.7,12.4v14.3Z"/>
</svg>