<?xml version="1.0" encoding="UTF-8"?>
<svg id="Capa_1" data-name="Capa 1" xmlns="http://www.w3.org/2000/svg" version="1.1" viewBox="0 0 419.1 75">
  <defs>
    <style>
      .cls-1 {
        fill: #2c363b;
      }

      .cls-1, .cls-2 {
        stroke-width: 0px;
      }

      .cls-2 {
        fill: #00efe8;
      }
    </style>
  </defs>
  <g>
    <path class="cls-1" d="M131.8,24.4l6.2,19.6,5.6-16h-2.7c-.5,0-.8-.3-.8-.8v-2.8c0-.5.3-.8.8-.8h7.7c.4,0,.7.1.8.4.1.2.2.5.2.7s0,.4-.1.6l-9.1,23.9c-.1.5-.5.7-1.1.7h-4.6c-.5,0-.8-.2-1.1-.7l-7.3-21.2h-2.7c-.5,0-.8-.3-.8-.8v-2.8c0-.5.3-.8.8-.8h6.9c.5,0,.9.2,1,.7Z"/>
    <path class="cls-1" d="M183.6,34.1v-1.9c0-2.5-.7-4.1-2.1-4.7-.7-.3-1.6-.4-2.9-.4-2.4,0-3.9,1.1-4.3,3.4-.1.5-.4.8-.8.8h-3.4c-.6,0-.8-.3-.7-.8.1-2.6,1.2-4.5,3.1-5.7,1.9-1.2,4.4-1.8,7.4-1.8,6.3,0,9.5,2.9,9.5,8.7v13.9h2.3c.5,0,.8.3.8.8v2.6c0,.5-.3.8-.8.8h-6.3c-.5,0-.7-.3-.8-.8l-.4-2.4c-1.9,2.6-4.7,3.9-8.3,3.9s-4.1-.6-5.6-1.8c-1.5-1.2-2.2-3.1-2.2-5.7s1.4-5.8,4.3-7.1c2.4-1.1,5.2-1.7,8.5-1.8.7,0,1.6,0,2.8,0ZM183.7,41.9v-4.1c-3.4,0-5.5.2-6.3.5-.8.3-1.5.6-2.1,1-1.1.6-1.7,1.7-1.7,3.3,0,2.4,1.4,3.7,4.2,3.7s3.3-.4,4.3-1.3c1-.9,1.5-1.9,1.5-3Z"/>
    <path class="cls-1" d="M204.9,24.4v27.6c0,7-3.1,10.6-9.4,10.6s-4.8-.4-6.4-1.1c-.3-.2-.5-.4-.5-.6s0-.4,0-.5l1.1-2.9c.2-.5.5-.6,1-.4,1.2.4,2.4.6,3.7.6,3,0,4.5-2.1,4.5-6.2v-23.6h-2.9c-.5,0-.8-.3-.8-.8v-2.8c0-.5.3-.8.8-.8h8c.5,0,.8.3.8.8ZM198.5,18.9c-.7-.7-1-1.6-1-2.7s.3-2,1-2.7c.7-.7,1.6-1.1,2.8-1.1s2.1.4,2.8,1.1c.7.7,1,1.6,1,2.7s-.4,2-1.1,2.7c-.7.7-1.6,1.1-2.8,1.1s-2.1-.4-2.7-1.1Z"/>
    <path class="cls-1" d="M223.3,50.5c-4.2,0-7.3-1.2-9.3-3.7-2-2.5-2.9-5.7-2.9-9.8s1-7.4,3.1-10.1c2.1-2.7,5.1-4,9-4s3.6.4,5,1.1c1.4.7,2.5,1.7,3.2,2.9,1.4,2.4,2.1,5.2,2.1,8.3s0,2.3-.2,2.4c-.1.1-.4.2-.8.2h-15.6c.2,2.5.8,4.5,1.9,5.9,1.1,1.4,2.9,2.1,5.6,2.1s3.9-.5,6-1.4c.5-.2.8-.1,1.1.4l1,2.4c.2.4,0,.8-.5,1.1-2.3,1.3-5.3,1.9-8.8,1.9ZM217,34.1h11c0-4.4-1.7-6.6-5.2-6.6s-3.6.7-4.4,2c-.9,1.3-1.3,2.9-1.4,4.6Z"/>
    <path class="cls-1" d="M240.4,25.4c1.8-1.6,4.1-2.3,6.8-2.3s5.1.3,7.2,1c.5.1.7.5.7,1v5.6c0,.5-.3.8-.8.8h-3.1c-.6,0-.8-.3-.7-.8l.3-2.7c-1.1-.6-2.2-.8-3.5-.8-2.8,0-4.2,1-4.2,3s.5,1.8,1.4,2.4c.9.6,2,1.1,3.3,1.5,1.3.4,2.6.8,4,1.3,1.3.5,2.4,1.3,3.4,2.4.9,1.1,1.4,2.6,1.4,4.4,0,2.7-.9,4.8-2.8,6.3-1.9,1.5-4.5,2.3-7.9,2.3s-4.9-.4-7.5-1.1c-.5-.1-.7-.5-.7-1v-5.6c0-.5.3-.8.8-.8h3.1c.5,0,.8.3.7.8l-.2,2.8c1,.7,2.3,1.1,4.1,1.1,3.1,0,4.7-1.1,4.7-3.3s-.5-2-1.4-2.7c-.9-.7-2-1.2-3.3-1.5-1.3-.4-2.6-.8-3.9-1.2-1.3-.4-2.4-1.2-3.3-2.3-.9-1.1-1.4-2.6-1.4-4.4s.9-4.3,2.7-5.8Z"/>
    <path class="cls-2" d="M266.8,24.4l6.2,19.3,5.5-15.7h-2.7c-.5,0-.8-.3-.8-.8v-2.8c0-.5.3-.8.8-.8h7.7c.4,0,.7.1.8.4.1.2.2.5.2.7s0,.4-.1.6l-11.4,29.7c-.5,1.3-1,2.4-1.4,3.1-.4.7-.9,1.5-1.6,2.3-1.3,1.6-3.2,2.3-5.8,2.3s-4.6-.4-6.3-1.2c-.3-.1-.4-.3-.4-.5s0-.4,0-.5l.9-2.6c.1-.5.5-.6,1-.5,1.7.6,3.1.8,4.2.8s1.9-.3,2.5-.8c.6-.5,1.2-1.7,1.8-3.4l1.3-3.5-8.1-22.5h-2.7c-.5,0-.8-.3-.8-.8v-2.8c0-.5.3-.8.8-.8h6.9c.5,0,.9.2,1,.7Z"/>
    <path class="cls-1" d="M324.1,45.7h3.3c.5,0,.8.3.8.8v2.6c0,.5-.3.8-.8.8h-12.6c-.5,0-.8-.3-.8-.8v-2.6c0-.5.3-.8.8-.8h3.3v-17.7h-2.9c-.5,0-.8-.3-.8-.8v-2.8c0-.5.3-.8.8-.8h8c.5,0,.8.3.8.8v21.3ZM317.6,18.9c-.7-.7-1-1.6-1-2.7s.3-2,1-2.7c.7-.7,1.6-1.1,2.8-1.1s2.1.4,2.8,1.1c.7.7,1,1.6,1,2.7s-.4,2-1.1,2.7c-.7.7-1.6,1.1-2.8,1.1s-2.1-.4-2.7-1.1Z"/>
    <path class="cls-1" d="M346.1,34.1v-1.9c0-2.5-.7-4.1-2.1-4.7-.7-.3-1.6-.4-2.9-.4-2.4,0-3.9,1.1-4.3,3.4-.1.5-.4.8-.8.8h-3.4c-.6,0-.8-.3-.7-.8.1-2.6,1.2-4.5,3.1-5.7,1.9-1.2,4.4-1.8,7.4-1.8,6.3,0,9.5,2.9,9.5,8.7v13.9h2.3c.5,0,.8.3.8.8v2.6c0,.5-.3.8-.8.8h-6.3c-.5,0-.7-.3-.8-.8l-.4-2.4c-1.9,2.6-4.7,3.9-8.3,3.9s-4.1-.6-5.6-1.8c-1.5-1.2-2.2-3.1-2.2-5.7s1.4-5.8,4.3-7.1c2.4-1.1,5.2-1.7,8.5-1.8.7,0,1.6,0,2.8,0ZM346.2,41.9v-4.1c-3.4,0-5.5.2-6.3.5-.8.3-1.5.6-2.1,1-1.1.6-1.7,1.7-1.7,3.3,0,2.4,1.4,3.7,4.2,3.7s3.3-.4,4.3-1.3c1-.9,1.5-1.9,1.5-3Z"/>
    <path class="cls-1" d="M367.4,24.4v27.6c0,7-3.1,10.6-9.4,10.6s-4.8-.4-6.4-1.1c-.3-.2-.5-.4-.5-.6s0-.4,0-.5l1.1-2.9c.2-.5.5-.6,1-.4,1.2.4,2.4.6,3.7.6,3,0,4.5-2.1,4.5-6.2v-23.6h-2.9c-.5,0-.8-.3-.8-.8v-2.8c0-.5.3-.8.8-.8h8c.5,0,.8.3.8.8ZM361,18.9c-.7-.7-1-1.6-1-2.7s.3-2,1-2.7c.7-.7,1.6-1.1,2.8-1.1s2.1.4,2.8,1.1c.7.7,1,1.6,1,2.7s-.4,2-1.1,2.7c-.7.7-1.6,1.1-2.8,1.1s-2.1-.4-2.7-1.1Z"/>
    <path class="cls-1" d="M385.9,50.5c-4.2,0-7.3-1.2-9.3-3.7-2-2.5-2.9-5.7-2.9-9.8s1-7.4,3.1-10.1c2.1-2.7,5.1-4,9-4s3.6.4,5,1.1c1.4.7,2.5,1.7,3.2,2.9,1.4,2.4,2.1,5.2,2.1,8.3s0,2.3-.2,2.4c-.1.1-.4.2-.8.2h-15.6c.2,2.5.8,4.5,1.9,5.9,1.1,1.4,2.9,2.1,5.6,2.1s3.9-.5,6-1.4c.5-.2.8-.1,1.1.4l1,2.4c.2.4,0,.8-.5,1.1-2.3,1.3-5.3,1.9-8.8,1.9ZM379.6,34.1h11c0-4.4-1.7-6.6-5.2-6.6s-3.6.7-4.4,2c-.9,1.3-1.3,2.9-1.4,4.6Z"/>
    <path class="cls-1" d="M402.9,25.4c1.8-1.6,4.1-2.3,6.8-2.3s5.1.3,7.2,1c.5.1.7.5.7,1v5.6c0,.5-.3.8-.8.8h-3.1c-.6,0-.8-.3-.7-.8l.3-2.7c-1.1-.6-2.2-.8-3.5-.8-2.8,0-4.2,1-4.2,3s.5,1.8,1.4,2.4c.9.6,2,1.1,3.3,1.5,1.3.4,2.6.8,4,1.3s2.4,1.3,3.4,2.4c.9,1.1,1.4,2.6,1.4,4.4,0,2.7-.9,4.8-2.8,6.3-1.9,1.5-4.5,2.3-7.9,2.3s-4.9-.4-7.5-1.1c-.5-.1-.7-.5-.7-1v-5.6c0-.5.3-.8.8-.8h3.1c.5,0,.8.3.7.8l-.2,2.8c1,.7,2.3,1.1,4.1,1.1,3.1,0,4.7-1.1,4.7-3.3s-.5-2-1.4-2.7c-.9-.7-2-1.2-3.3-1.5-1.3-.4-2.6-.8-3.9-1.2-1.3-.4-2.4-1.2-3.3-2.3-.9-1.1-1.4-2.6-1.4-4.4s.9-4.3,2.7-5.8Z"/>
    <path class="cls-1" d="M312,24c-.1-.2-.4-.4-.8-.4h-7.7c-.4,0-.8.4-.8.8v2.8c0,.4.4.8.8.8h2.7l-5.6,16-6.2-19.6c-.1-.5-.5-.7-1-.7h-5.1c-.2,0-.5.2-.5.4l-1.4,3.8c0,0,0,.2.1.2h2.6l7.3,21.2c.2.5.6.7,1.1.7h4.6c.6,0,.9-.2,1.1-.7l9.1-23.9c0-.2.1-.4.1-.6s0-.4-.2-.7Z"/>
    <path class="cls-1" d="M157.8,20c1.1,0,2.1-.4,2.8-1.1.7-.7,1.1-1.6,1.1-2.7s-.3-2-1-2.7c-.7-.7-1.6-1.1-2.8-1.1s-2.1.4-2.8,1.1c-.7.7-1,1.6-1,2.7s.3,2,1,2.7c.7.7,1.6,1.1,2.7,1.1Z"/>
    <path class="cls-1" d="M164.8,45.7h-3.3v-21.3c0-.4-.4-.8-.8-.8h-6c-.2,0-.4.1-.4.3l-1.4,3.7c0,.2,0,.3.2.3h2.4v17.7h-3.3c-.4,0-.8.4-.8.8v2.6c0,.4.4.8.8.8h12.6c.4,0,.8-.4.8-.8v-2.6c0-.4-.4-.8-.8-.8Z"/>
  </g>
  <g>
    <path class="cls-1" d="M52.1,21.8l4.8-8.9C61.1,5,69.5,0,78.5,0h0c12.4,0,20.3,13.2,14.5,24.2l-12.2,22.8c-4.3,7.9-14,11.1-22.1,7.2h0c-10.8-5.2-14.8-18.5-8.6-28.8l2.1-3.6Z"/>
    <path class="cls-2" d="M46.9,12.2l14.2,26.4c4,7.5,13.5,10.2,20.9,6h0s-10,18.6-10,18.6c-3.9,7.2-11.4,11.7-19.6,11.7h-.5c-8.3,0-15.9-4.5-19.8-11.8L7.9,18.2c-.5-1-1.4-1.9-2.4-2.5l-1.9-1.1c-1.5-.9-2.5-2.4-2.7-4.2L0,1.9C-.1.9.7,0,1.7,0h24.7c8.6,0,16.4,4.7,20.5,12.2Z"/>
  </g>
</svg>