<?xml version="1.0" encoding="UTF-8"?>
<svg id="Capa_1" data-name="Capa 1" xmlns="http://www.w3.org/2000/svg" version="1.1" viewBox="0 0 353 75">
  <defs>
    <style>
      .cls-1 {
        fill: #52c6cc;
      }

      .cls-1, .cls-2 {
        stroke-width: 0px;
      }

      .cls-2 {
        fill: #2b363b;
      }
    </style>
  </defs>
  <g>
    <path class="cls-2" d="M51,21.3l4.7-8.7C59.9,4.9,68,0,76.9,0h0c12.2,0,19.9,13,14.2,23.7l-12,22.3c-4.2,7.8-13.7,10.9-21.7,7h0c-10.5-5.1-14.5-18.1-8.5-28.2l2.1-3.5Z"/>
    <path class="cls-1" d="M45.9,12l13.9,25.9c3.9,7.4,13.2,10,20.4,5.9h0s-9.8,18.2-9.8,18.2c-3.8,7.1-11.2,11.5-19.2,11.5h-.5c-8.1,0-15.5-4.4-19.4-11.6L7.8,17.8c-.5-1-1.3-1.8-2.3-2.4l-1.8-1.1c-1.5-.9-2.4-2.4-2.6-4.1L0,1.9C-.1.9.7,0,1.7,0h24.1c8.4,0,16.1,4.6,20,12Z"/>
  </g>
  <g>
    <path class="cls-1" d="M139.1,60.1v1.2c0,2.3-.8,4.2-2.3,5.7-1.5,1.5-3.5,2.2-6,2.2s-4.8-.8-6.5-2.5c-1.7-1.7-2.5-3.8-2.5-6.2s.8-4.5,2.5-6.2c1.7-1.7,3.8-2.6,6.3-2.6s5.9,1.6,7.4,4l-2.4,1.4c-.9-1.6-2.8-2.7-5-2.7s-3.2.6-4.4,1.7-1.7,2.6-1.7,4.4.6,3.2,1.7,4.3c1.2,1.1,2.7,1.7,4.6,1.7,3,0,5-1.5,5.5-3.9h-5.7v-2.5h8.5Z"/>
    <path class="cls-1" d="M147,58.8c.7-1.5,1.9-2.2,3.7-2.2v2.8c-1,0-1.9.2-2.6.7-.8.5-1.1,1.4-1.1,2.7v6.1h-2.6v-12.1h2.6v2Z"/>
    <path class="cls-1" d="M156.2,67.3c-1.2-1.2-1.9-2.7-1.9-4.5s.6-3.3,1.9-4.5c1.2-1.2,2.8-1.8,4.5-1.8s3.3.6,4.5,1.8c1.2,1.2,1.9,2.7,1.9,4.5s-.6,3.3-1.9,4.5c-1.2,1.2-2.7,1.8-4.5,1.8s-3.3-.6-4.5-1.8ZM160.7,66.6c1.1,0,2-.4,2.7-1.1.7-.7,1.1-1.6,1.1-2.7s-.4-2-1.1-2.7c-.7-.7-1.6-1.1-2.7-1.1s-2,.4-2.7,1.1c-.7.7-1.1,1.6-1.1,2.7s.4,2,1.1,2.7c.7.7,1.6,1.1,2.7,1.1Z"/>
    <path class="cls-1" d="M180.6,56.7h2.6v12.1h-2.6v-1.5c-.8,1.2-2,1.9-3.8,1.9-2.8,0-4.6-1.9-4.6-5v-7.4h2.6v7.2c0,1.8,1,2.8,2.7,2.8s3.1-1.1,3.1-3.5v-6.5Z"/>
    <path class="cls-1" d="M200.2,58.3c1.2,1.2,1.8,2.7,1.8,4.5s-.6,3.3-1.8,4.5-2.6,1.8-4.3,1.8-3.2-.7-4.2-2v6.6h-2.6v-16.9h2.6v1.7c1-1.4,2.4-2.1,4.2-2.1s3.1.6,4.3,1.9ZM195.6,66.7c1.1,0,2-.4,2.7-1.1.7-.8,1.1-1.7,1.1-2.8s-.4-2-1.1-2.8c-.7-.7-1.6-1.1-2.7-1.1s-2,.4-2.7,1.1c-.7.7-1.1,1.6-1.1,2.8s.4,2,1.1,2.8c.7.7,1.6,1.1,2.7,1.1Z"/>
  </g>
  <path class="cls-2" d="M125.2,13.2l4.9,15.6,4.4-12.7h-2.1c-.4,0-.6-.2-.6-.6v-2.2c0-.4.2-.6.6-.6h6.1c.3,0,.6,0,.7.3.1.2.2.4.2.5s0,.3,0,.4l-7.2,19c-.1.4-.4.6-.8.6h-3.6c-.4,0-.7-.2-.8-.6l-5.8-16.8h-2.1c-.4,0-.6-.2-.6-.6v-2.2c0-.4.2-.6.6-.6h5.5c.4,0,.7.2.8.6Z"/>
  <path class="cls-2" d="M166.2,20.9v-1.5c0-2-.6-3.2-1.7-3.7-.5-.2-1.3-.3-2.3-.3-1.9,0-3.1.9-3.4,2.7,0,.4-.3.6-.6.6h-2.7c-.4,0-.6-.2-.6-.6.1-2,.9-3.5,2.5-4.5,1.5-1,3.5-1.4,5.9-1.4,5,0,7.5,2.3,7.5,6.9v11.1h1.8c.4,0,.6.2.6.6v2.1c0,.4-.2.6-.6.6h-5c-.4,0-.6-.2-.6-.6l-.3-1.9c-1.5,2-3.7,3.1-6.6,3.1s-3.3-.5-4.5-1.4c-1.2-.9-1.8-2.4-1.8-4.5s1.1-4.6,3.4-5.6c1.9-.9,4.1-1.3,6.7-1.4.5,0,1.3,0,2.2,0ZM166.3,27.1v-3.2c-2.7,0-4.3.1-5,.4-.6.3-1.2.5-1.6.8-.9.5-1.3,1.3-1.3,2.6,0,1.9,1.1,2.9,3.3,2.9s2.6-.3,3.4-1c.8-.7,1.2-1.5,1.2-2.4Z"/>
  <path class="cls-2" d="M183.1,13.2v21.9c0,5.6-2.5,8.4-7.4,8.4s-3.8-.3-5-.9c-.3-.1-.4-.3-.4-.4s0-.3,0-.4l.8-2.3c.1-.4.4-.5.8-.3.9.3,1.9.5,2.9.5,2.4,0,3.5-1.6,3.5-4.9v-18.7h-2.3c-.4,0-.6-.2-.6-.6v-2.2c0-.4.2-.6.6-.6h6.4c.4,0,.6.2.6.6ZM178,8.8c-.5-.6-.8-1.3-.8-2.1s.3-1.6.8-2.2c.5-.6,1.3-.9,2.2-.9s1.6.3,2.2.9c.5.6.8,1.3.8,2.2s-.3,1.6-.8,2.1c-.6.6-1.3.8-2.2.8s-1.6-.3-2.2-.8Z"/>
  <path class="cls-2" d="M197.8,33.9c-3.3,0-5.8-1-7.3-2.9-1.6-1.9-2.3-4.5-2.3-7.7s.8-5.9,2.5-8c1.7-2.1,4-3.2,7.2-3.2s2.9.3,4,.9c1.1.6,2,1.4,2.5,2.3,1.1,1.9,1.7,4.1,1.7,6.6s0,1.8-.2,1.9c-.1.1-.3.2-.6.2h-12.4c.1,2,.6,3.6,1.5,4.7.9,1.1,2.3,1.7,4.4,1.7s3.1-.4,4.8-1.1c.4-.2.7,0,.8.3l.8,1.9c.1.3,0,.6-.4.8-1.9,1-4.2,1.5-6.9,1.5ZM192.8,20.9h8.7c0-3.5-1.3-5.3-4.1-5.3s-2.8.5-3.5,1.6c-.7,1.1-1.1,2.3-1.1,3.7Z"/>
  <path class="cls-2" d="M211.3,14c1.4-1.2,3.2-1.9,5.4-1.9s4.1.3,5.7.8c.4.1.6.4.6.8v4.5c0,.4-.2.6-.6.6h-2.4c-.4,0-.6-.2-.5-.6l.2-2.1c-.8-.4-1.8-.7-2.8-.7-2.2,0-3.4.8-3.4,2.4s.4,1.5,1.1,1.9c.7.5,1.6.9,2.6,1.2,1,.3,2.1.6,3.1,1,1.1.4,1.9,1,2.7,1.9.7.9,1.1,2.1,1.1,3.5,0,2.1-.7,3.8-2.2,5-1.5,1.2-3.6,1.8-6.3,1.8s-3.9-.3-5.9-.8c-.4-.1-.5-.4-.5-.8v-4.5c0-.4.2-.6.6-.6h2.4c.4,0,.6.2.6.6v2.2c.6.6,1.7.8,3.1.8,2.5,0,3.7-.9,3.7-2.6s-.4-1.6-1.1-2.1c-.7-.5-1.6-.9-2.6-1.2-1-.3-2.1-.6-3.1-.9-1-.4-1.9-1-2.6-1.9-.7-.9-1.1-2-1.1-3.5s.7-3.4,2.1-4.6Z"/>
  <path class="cls-1" d="M232.2,13.2l4.9,15.3,4.4-12.5h-2.1c-.4,0-.6-.2-.6-.6v-2.2c0-.4.2-.6.6-.6h6.1c.3,0,.6,0,.7.3.1.2.2.4.2.5s0,.3,0,.4l-9,23.5c-.4,1.1-.8,1.9-1.1,2.5-.3.6-.7,1.2-1.2,1.8-1,1.2-2.6,1.9-4.6,1.9s-3.7-.3-5-.9c-.2-.1-.3-.3-.3-.4s0-.3,0-.4l.7-2.1c.1-.4.4-.5.8-.4,1.3.4,2.4.7,3.3.7s1.5-.2,2-.7c.5-.4.9-1.3,1.5-2.7l1.1-2.8-6.4-17.8h-2.1c-.4,0-.6-.2-.6-.6v-2.2c0-.4.2-.6.6-.6h5.5c.4,0,.7.2.8.6Z"/>
  <path class="cls-2" d="M295.1,20.9v-1.5c0-2-.6-3.2-1.7-3.7-.5-.2-1.3-.3-2.3-.3-1.9,0-3.1.9-3.4,2.7,0,.4-.3.6-.6.6h-2.7c-.4,0-.6-.2-.6-.6.1-2,.9-3.5,2.5-4.5,1.5-1,3.5-1.4,5.9-1.4,5,0,7.5,2.3,7.5,6.9v11.1h1.8c.4,0,.6.2.6.6v2.1c0,.4-.2.6-.6.6h-5c-.4,0-.6-.2-.6-.6l-.3-1.9c-1.5,2-3.7,3.1-6.6,3.1s-3.3-.5-4.5-1.4c-1.2-.9-1.8-2.4-1.8-4.5s1.1-4.6,3.4-5.6c1.9-.9,4.1-1.3,6.7-1.4.5,0,1.3,0,2.2,0ZM295.2,27.1v-3.2c-2.7,0-4.3.1-5,.4-.6.3-1.2.5-1.6.8-.9.5-1.3,1.3-1.3,2.6,0,1.9,1.1,2.9,3.3,2.9s2.6-.3,3.4-1c.8-.7,1.2-1.5,1.2-2.4Z"/>
  <path class="cls-2" d="M312,13.2v21.9c0,5.6-2.5,8.4-7.4,8.4s-3.8-.3-5-.9c-.3-.1-.4-.3-.4-.4s0-.3,0-.4l.8-2.3c.1-.4.4-.5.8-.3.9.3,1.9.5,2.9.5,2.4,0,3.5-1.6,3.5-4.9v-18.7h-2.3c-.4,0-.6-.2-.6-.6v-2.2c0-.4.2-.6.6-.6h6.4c.4,0,.6.2.6.6ZM306.9,8.8c-.5-.6-.8-1.3-.8-2.1s.3-1.6.8-2.2c.5-.6,1.3-.9,2.2-.9s1.6.3,2.2.9c.5.6.8,1.3.8,2.2s-.3,1.6-.8,2.1c-.6.6-1.3.8-2.2.8s-1.6-.3-2.2-.8Z"/>
  <path class="cls-2" d="M326.7,33.9c-3.3,0-5.8-1-7.3-2.9-1.6-1.9-2.3-4.5-2.3-7.7s.8-5.9,2.5-8c1.7-2.1,4-3.2,7.2-3.2s2.9.3,4,.9c1.1.6,2,1.4,2.5,2.3,1.1,1.9,1.7,4.1,1.7,6.6s0,1.8-.2,1.9c-.1.1-.3.2-.6.2h-12.4c.1,2,.6,3.6,1.5,4.7.9,1.1,2.3,1.7,4.4,1.7s3.1-.4,4.8-1.1c.4-.2.7,0,.8.3l.8,1.9c.1.3,0,.6-.4.8-1.9,1-4.2,1.5-6.9,1.5ZM321.7,20.9h8.7c0-3.5-1.3-5.3-4.1-5.3s-2.8.5-3.5,1.6c-.7,1.1-1.1,2.3-1.1,3.7Z"/>
  <path class="cls-2" d="M340.2,14c1.4-1.2,3.2-1.9,5.4-1.9s4.1.3,5.7.8c.4.1.6.4.6.8v4.5c0,.4-.2.6-.6.6h-2.4c-.4,0-.6-.2-.5-.6l.2-2.1c-.8-.4-1.8-.7-2.8-.7-2.2,0-3.4.8-3.4,2.4s.4,1.5,1.1,1.9c.7.5,1.6.9,2.6,1.2,1,.3,2.1.6,3.1,1,1.1.4,1.9,1,2.7,1.9.7.9,1.1,2.1,1.1,3.5,0,2.1-.7,3.8-2.2,5-1.5,1.2-3.6,1.8-6.3,1.8s-3.9-.3-5.9-.8c-.4-.1-.5-.4-.5-.8v-4.5c0-.4.2-.6.6-.6h2.4c.4,0,.6.2.6.6v2.2c.6.6,1.7.8,3.1.8,2.5,0,3.7-.9,3.7-2.6s-.4-1.6-1.1-2.1c-.7-.5-1.6-.9-2.6-1.2-1-.3-2.1-.6-3.1-.9-1-.4-1.9-1-2.6-1.9-.7-.9-1.1-2-1.1-3.5s.7-3.4,2.1-4.6Z"/>
  <path class="cls-2" d="M268,12.9c-.1-.2-.3-.3-.7-.3h-6.1c-.3,0-.6.3-.6.6v2.2c0,.3.3.6.6.6h2.1l-4.4,12.7-4.9-15.6c-.1-.4-.4-.6-.8-.6h-4c-.2,0-.4.1-.4.3l-1.1,3c0,0,0,.1.1.1h2.1l5.8,16.8c.2.4.4.6.8.6h3.6c.4,0,.7-.2.8-.6l7.2-19c0-.1,0-.3,0-.4s0-.3-.2-.5Z"/>
  <g>
    <path class="cls-2" d="M145.8,9.7c.9,0,1.6-.3,2.2-.8.6-.6.8-1.3.8-2.1s-.3-1.6-.8-2.2c-.5-.6-1.3-.9-2.2-.9s-1.6.3-2.2.9c-.5.6-.8,1.3-.8,2.2s.3,1.6.8,2.1c.5.6,1.3.8,2.2.8Z"/>
    <path class="cls-2" d="M151.4,30.1h-2.6V13.2c0-.3-.3-.6-.6-.6h-4.7c-.2,0-.3,0-.3.2l-1.1,2.9c0,.1,0,.3.2.3h1.9v14h-2.7c-.3,0-.6.3-.6.6v2.1c0,.3.3.6.6.6h10c.3,0,.6-.3.6-.6v-2.1c0-.3-.3-.6-.6-.6Z"/>
  </g>
  <g>
    <path class="cls-2" d="M274.7,9.7c.9,0,1.6-.3,2.2-.8.6-.6.8-1.3.8-2.1s-.3-1.6-.8-2.2c-.5-.6-1.3-.9-2.2-.9s-1.6.3-2.2.9c-.5.6-.8,1.3-.8,2.2s.3,1.6.8,2.1c.5.6,1.3.8,2.2.8Z"/>
    <path class="cls-2" d="M280.3,30.1h-2.6V13.2c0-.3-.3-.6-.6-.6h-4.7c-.2,0-.3,0-.3.2l-1.1,2.9c0,.1,0,.3.2.3h1.9v14h-2.7c-.3,0-.6.3-.6.6v2.1c0,.3.3.6.6.6h10c.3,0,.6-.3.6-.6v-2.1c0-.3-.3-.6-.6-.6Z"/>
  </g>
</svg>