<?xml version="1.0" encoding="UTF-8"?>
<svg id="Capa_1" data-name="Capa 1" xmlns="http://www.w3.org/2000/svg" version="1.1" viewBox="0 0 75 75">
  <defs>
    <style>
      .cls-1 {
        fill: #fff;
        stroke-width: 0px;
      }
    </style>
  </defs>
  <path class="cls-1" d="M37.5,0C16.8,0,0,16.8,0,37.5s16.8,37.5,37.5,37.5,37.5-16.8,37.5-37.5S58.2,0,37.5,0ZM58.9,51.6c-1.4,3.3-4.7,5.5-8.2,6.1-3.3.6-6-.4-9-1.4-2.7-.9-5.4-2.2-7.8-3.7-4.9-3-9.1-7-12.5-11.5-1-1.4-2-2.9-2.9-4.3-1.2-2-2.2-4.1-2.8-6.3-.2-1-.3-1.9-.3-2.9,0-3.4,1.3-6.8,3.9-9,1.6-1.3,3.9-1.8,5.7-.9,1.9,1.1,2.9,3.8,3.8,5.7.7,1.5,1.5,3.5,1.2,5.1-.3,1.7-1.7,3.1-2.7,4.3-.7.9-.8,1.6-.2,2.5,3.5,5.8,8.3,10,14.6,12.6.9.3,1.5.2,2.1-.5,1.1-1.4,2.2-4,3.8-4.7,2.2-.9,4.6.3,6.5,1.5,1.7,1,4.6,2.3,5.1,4.5.2,1,0,2.1-.4,3.1Z"/>
</svg>