<?xml version="1.0" encoding="UTF-8"?>
<svg id="Capa_1" data-name="Capa 1" xmlns="http://www.w3.org/2000/svg" version="1.1" viewBox="0 0 75 75">
  <defs>
    <style>
      .cls-1 {
        fill: #2c363b;
        stroke-width: 0px;
      }
    </style>
  </defs>
  <path class="cls-1" d="M37.5,0C16.8,0,0,16.8,0,37.5s16.8,37.5,37.5,37.5,37.5-16.8,37.5-37.5S58.2,0,37.5,0ZM59.1,32.8h0c-.4,0-.8,0-1.2,0-4.4,0-8.6-2.2-11-5.9v20.2c0,8.2-6.7,14.9-14.9,14.9s-14.9-6.7-14.9-14.9,6.7-14.9,14.9-14.9.6,0,.9,0v7.4c-.3,0-.6,0-.9,0-4.2,0-7.6,3.4-7.6,7.6s3.4,7.6,7.6,7.6,7.9-3.3,7.9-7.5V12.9h7.1c.7,6.3,5.8,11.2,12.1,11.7v8.2Z"/>
</svg>