<?xml version="1.0" encoding="UTF-8"?>
<svg id="Capa_1" data-name="Capa 1" xmlns="http://www.w3.org/2000/svg" version="1.1" viewBox="0 0 75 75">
  <defs>
    <style>
      .cls-1 {
        fill: #2c363b;
        stroke-width: 0px;
      }
    </style>
  </defs>
  <path class="cls-1" d="M46,37.2l-11.8-6.4c-.5-.3-2.1,0-2.1.6v12.5c0,.6,1.6.9,2.1.6l12.3-6.1c.5-.3,0-1-.5-1.3Z"/>
  <path class="cls-1" d="M37.5,0C16.8,0,0,16.8,0,37.5s16.8,37.5,37.5,37.5,37.5-16.8,37.5-37.5S58.2,0,37.5,0ZM62.7,43.9c0,5.9-4.8,10.8-10.8,10.8h-27.5c-5.9,0-10.8-4.8-10.8-10.8v-12.8c0-5.9,4.8-10.8,10.8-10.8h27.5c5.9,0,10.8,4.8,10.8,10.8v12.8Z"/>
</svg>